<svg width="360" height="360" viewBox="0 0 360 360" fill="none" xmlns="http://www.w3.org/2000/svg">
<rect x="5" y="5" width="350" height="350" rx="175" fill="white" stroke="#004AAB" stroke-width="10"/>
<path d="M163.966 122.423C163.966 118.695 162.956 116.054 160.937 114.501C159.073 112.948 155.811 112.171 151.151 112.171H147.889C146.646 112.171 146.025 111.55 146.025 110.307V104.715L146.491 104.249C146.491 104.249 147.656 104.327 149.986 104.482C152.471 104.482 155.423 104.482 158.84 104.482C162.413 104.482 165.908 104.56 169.325 104.715C172.898 104.715 175.849 104.715 178.179 104.715C180.354 104.715 183.15 104.715 186.567 104.715C190.14 104.56 193.712 104.482 197.285 104.482C200.858 104.482 203.887 104.482 206.372 104.482C208.857 104.327 210.1 104.249 210.1 104.249L210.566 104.715V110.307C210.566 111.55 209.945 112.171 208.702 112.171H205.44C200.625 112.171 197.285 113.103 195.421 114.967C193.557 116.676 192.625 119.161 192.625 122.423V237.292C192.625 240.554 193.557 243.117 195.421 244.981C197.285 246.69 200.625 247.544 205.44 247.544H208.702C209.945 247.544 210.566 248.243 210.566 249.641V255L210.1 255.466C210.1 255.466 208.857 255.388 206.372 255.233C203.887 255.233 200.858 255.233 197.285 255.233C193.712 255.233 190.14 255.155 186.567 255C183.15 255 180.354 255 178.179 255C175.849 255 172.898 255 169.325 255C165.908 255.155 162.413 255.233 158.84 255.233C155.423 255.233 152.471 255.233 149.986 255.233C147.656 255.388 146.491 255.466 146.491 255.466L146.025 255V249.641C146.025 248.243 146.646 247.544 147.889 247.544H151.151C155.811 247.544 159.073 246.767 160.937 245.214C162.956 243.661 163.966 241.02 163.966 237.292V180.207H98.726V237.292C98.726 240.554 99.658 243.117 101.522 244.981C103.386 246.69 106.726 247.544 111.541 247.544H114.803C116.046 247.544 116.667 248.243 116.667 249.641V255L116.201 255.466C116.201 255.466 114.958 255.388 112.473 255.233C109.988 255.233 106.959 255.233 103.386 255.233C99.8133 255.233 96.2407 255.155 92.668 255C89.2507 255 86.4547 255 84.28 255C81.95 255 78.9987 255 75.426 255C72.0087 255.155 68.5137 255.233 64.941 255.233C61.5237 255.233 58.5723 255.233 56.087 255.233C53.757 255.388 52.592 255.466 52.592 255.466L52.126 255V249.641C52.126 248.243 52.7473 247.544 53.99 247.544H57.252C61.912 247.544 65.174 246.767 67.038 245.214C69.0573 243.661 70.067 241.02 70.067 237.292V122.423C70.067 118.695 69.0573 116.054 67.038 114.501C65.174 112.948 61.912 112.171 57.252 112.171H53.99C52.7473 112.171 52.126 111.55 52.126 110.307V104.715L52.592 104.249C52.592 104.249 53.757 104.327 56.087 104.482C58.5723 104.482 61.5237 104.482 64.941 104.482C68.5137 104.482 72.0087 104.56 75.426 104.715C78.9987 104.715 81.95 104.715 84.28 104.715C86.4547 104.715 89.2507 104.715 92.668 104.715C96.2407 104.56 99.8133 104.482 103.386 104.482C106.959 104.482 109.988 104.482 112.473 104.482C114.958 104.327 116.201 104.249 116.201 104.249L116.667 104.715V110.307C116.667 111.55 116.046 112.171 114.803 112.171H111.541C106.726 112.171 103.386 113.103 101.522 114.967C99.658 116.676 98.726 119.161 98.726 122.423V169.489H163.966V122.423ZM152.099 255L151.633 254.534V249.408C151.633 248.01 152.255 247.311 153.497 247.311H156.759C161.419 247.311 164.681 246.534 166.545 244.981C168.565 243.428 169.574 240.787 169.574 237.059V122.423C169.574 118.695 168.565 116.054 166.545 114.501C164.681 112.948 161.419 112.171 156.759 112.171H153.497C152.255 112.171 151.633 111.55 151.633 110.307V104.948L152.099 104.482H221.067C232.873 104.482 243.824 106.579 253.92 110.773C264.172 114.812 273.104 120.481 280.715 127.782C288.482 134.927 294.462 143.238 298.656 152.713C303.006 162.188 305.18 172.285 305.18 183.003C305.18 197.294 302.695 209.099 297.724 218.419C292.754 227.739 286.23 235.117 278.152 240.554C270.23 245.835 261.609 249.563 252.289 251.738C242.969 253.913 233.96 255 225.261 255H152.099ZM198 237.525C198 239.855 198.389 241.641 199.165 242.884C200.097 243.971 201.961 244.748 204.757 245.214C207.709 245.525 212.213 245.68 218.271 245.68C225.727 245.68 232.795 244.826 239.474 243.117C246.309 241.408 252.289 238.535 257.415 234.496C262.697 230.302 266.813 224.477 269.764 217.021C272.871 209.565 274.424 200.167 274.424 188.828C274.424 179.974 273.337 171.198 271.162 162.499C268.988 153.645 265.493 145.568 260.677 138.267C255.862 130.811 249.493 124.908 241.571 120.559C233.649 116.054 223.941 113.802 212.446 113.802C208.252 113.802 204.757 114.268 201.961 115.2C199.321 115.977 198 118.229 198 121.957V237.525Z" fill="#004AAB"/>
</svg>
