<svg width="1118" height="301" viewBox="0 0 1118 301" fill="none" xmlns="http://www.w3.org/2000/svg">
<path d="M542.466 18.174C542.466 14.446 541.456 11.8053 539.437 10.252C537.573 8.69865 534.311 7.92198 529.651 7.92198H526.389C525.146 7.92198 524.525 7.30065 524.525 6.05798V0.465982L524.991 -1.16229e-05C524.991 -1.16229e-05 526.156 0.077654 528.486 0.232985C530.971 0.232985 533.923 0.232985 537.34 0.232985C540.913 0.232985 544.408 0.310651 547.825 0.465982C551.398 0.465982 554.349 0.465982 556.679 0.465982C558.854 0.465982 561.65 0.465982 565.067 0.465982C568.64 0.310651 572.212 0.232985 575.785 0.232985C579.358 0.232985 582.387 0.232985 584.872 0.232985C587.357 0.077654 588.6 -1.16229e-05 588.6 -1.16229e-05L589.066 0.465982V6.05798C589.066 7.30065 588.445 7.92198 587.202 7.92198H583.94C579.125 7.92198 575.785 8.85399 573.921 10.718C572.057 12.4267 571.125 14.912 571.125 18.174V133.043C571.125 136.305 572.057 138.868 573.921 140.732C575.785 142.441 579.125 143.295 583.94 143.295H587.202C588.445 143.295 589.066 143.994 589.066 145.392V150.751L588.6 151.217C588.6 151.217 587.357 151.139 584.872 150.984C582.387 150.984 579.358 150.984 575.785 150.984C572.212 150.984 568.64 150.906 565.067 150.751C561.65 150.751 558.854 150.751 556.679 150.751C554.349 150.751 551.398 150.751 547.825 150.751C544.408 150.906 540.913 150.984 537.34 150.984C533.923 150.984 530.971 150.984 528.486 150.984C526.156 151.139 524.991 151.217 524.991 151.217L524.525 150.751V145.392C524.525 143.994 525.146 143.295 526.389 143.295H529.651C534.311 143.295 537.573 142.518 539.437 140.965C541.456 139.412 542.466 136.771 542.466 133.043V75.958H477.226V133.043C477.226 136.305 478.158 138.868 480.022 140.732C481.886 142.441 485.226 143.295 490.041 143.295H493.303C494.546 143.295 495.167 143.994 495.167 145.392V150.751L494.701 151.217C494.701 151.217 493.458 151.139 490.973 150.984C488.488 150.984 485.459 150.984 481.886 150.984C478.313 150.984 474.741 150.906 471.168 150.751C467.751 150.751 464.955 150.751 462.78 150.751C460.45 150.751 457.499 150.751 453.926 150.751C450.509 150.906 447.014 150.984 443.441 150.984C440.024 150.984 437.072 150.984 434.587 150.984C432.257 151.139 431.092 151.217 431.092 151.217L430.626 150.751V145.392C430.626 143.994 431.247 143.295 432.49 143.295H435.752C440.412 143.295 443.674 142.518 445.538 140.965C447.557 139.412 448.567 136.771 448.567 133.043V18.174C448.567 14.446 447.557 11.8053 445.538 10.252C443.674 8.69865 440.412 7.92198 435.752 7.92198H432.49C431.247 7.92198 430.626 7.30065 430.626 6.05798V0.465982L431.092 -1.16229e-05C431.092 -1.16229e-05 432.257 0.077654 434.587 0.232985C437.072 0.232985 440.024 0.232985 443.441 0.232985C447.014 0.232985 450.509 0.310651 453.926 0.465982C457.499 0.465982 460.45 0.465982 462.78 0.465982C464.955 0.465982 467.751 0.465982 471.168 0.465982C474.741 0.310651 478.313 0.232985 481.886 0.232985C485.459 0.232985 488.488 0.232985 490.973 0.232985C493.458 0.077654 494.701 -1.16229e-05 494.701 -1.16229e-05L495.167 0.465982V6.05798C495.167 7.30065 494.546 7.92198 493.303 7.92198H490.041C485.226 7.92198 481.886 8.85399 480.022 10.718C478.158 12.4267 477.226 14.912 477.226 18.174V65.24H542.466V18.174ZM530.599 150.751L530.133 150.285V145.159C530.133 143.761 530.755 143.062 531.997 143.062H535.259C539.919 143.062 543.181 142.285 545.045 140.732C547.065 139.179 548.074 136.538 548.074 132.81V18.174C548.074 14.446 547.065 11.8053 545.045 10.252C543.181 8.69865 539.919 7.92198 535.259 7.92198H531.997C530.755 7.92198 530.133 7.30065 530.133 6.05798V0.698979L530.599 0.232985H599.567C611.373 0.232985 622.324 2.32999 632.42 6.52399C642.672 10.5626 651.604 16.2323 659.215 23.533C666.982 30.6783 672.962 38.9887 677.156 48.464C681.506 57.9393 683.68 68.036 683.68 78.754C683.68 93.0447 681.195 104.85 676.224 114.17C671.254 123.49 664.73 130.868 656.652 136.305C648.73 141.586 640.109 145.314 630.789 147.489C621.469 149.664 612.46 150.751 603.761 150.751H530.599ZM576.5 133.276C576.5 135.606 576.889 137.392 577.665 138.635C578.597 139.722 580.461 140.499 583.257 140.965C586.209 141.276 590.713 141.431 596.771 141.431C604.227 141.431 611.295 140.577 617.974 138.868C624.809 137.159 630.789 134.286 635.915 130.247C641.197 126.053 645.313 120.228 648.264 112.772C651.371 105.316 652.924 95.9183 652.924 84.579C652.924 75.725 651.837 66.9487 649.662 58.25C647.488 49.396 643.993 41.3187 639.177 34.018C634.362 26.562 627.993 20.6593 620.071 16.31C612.149 11.8053 602.441 9.55299 590.946 9.55299C586.752 9.55299 583.257 10.019 580.461 10.951C577.821 11.7277 576.5 13.98 576.5 17.708V133.276Z" fill="#004AAB"/>
<path d="M18.5 282.751C17.5 282.751 16.1333 282.751 14.4 282.751C12.7333 282.818 11.0333 282.851 9.3 282.851C7.56667 282.851 6.1 282.851 4.9 282.851C3.7 282.918 3.1 282.951 3.1 282.951C2.63333 282.618 2.4 282.051 2.4 281.251C2.4 280.384 2.63333 279.818 3.1 279.551C4.96667 279.418 6.5 279.184 7.7 278.851C8.9 278.518 9.8 277.751 10.4 276.551C11.0667 275.284 11.4 273.284 11.4 270.551V230.451C11.4 227.651 11.0667 225.651 10.4 224.451C9.8 223.251 8.9 222.484 7.7 222.151C6.5 221.751 4.96667 221.518 3.1 221.451C2.63333 221.118 2.4 220.551 2.4 219.751C2.4 218.884 2.63333 218.318 3.1 218.051C3.1 218.051 3.7 218.084 4.9 218.151C6.1 218.151 7.56667 218.151 9.3 218.151C11.0333 218.151 12.7333 218.184 14.4 218.251C16.1333 218.251 17.5 218.251 18.5 218.251C20.5 218.251 22.5667 218.251 24.7 218.251C26.9 218.184 29.3333 218.151 32 218.151C40.2 218.151 47 219.684 52.4 222.751C57.8 225.751 61.8333 229.818 64.5 234.951C67.2333 240.018 68.6 245.651 68.6 251.851C68.6 256.918 67.8333 261.451 66.3 265.451C64.8333 269.384 62.9 272.418 60.5 274.551C56.9667 277.618 52.8667 279.784 48.2 281.051C43.6 282.318 39.1 282.951 34.7 282.951C33.3667 282.951 31.6667 282.918 29.6 282.851C27.6 282.851 25.5667 282.818 23.5 282.751C21.5 282.751 19.8333 282.751 18.5 282.751ZM25.4 270.851C25.4 274.184 26.1333 276.351 27.6 277.351C29.0667 278.284 31.5333 278.751 35 278.751C36.9333 278.751 38.9667 278.351 41.1 277.551C43.2333 276.684 45.2333 275.318 47.1 273.451C48.9667 271.518 50.5 268.984 51.7 265.851C52.9 262.718 53.5 258.884 53.5 254.351C53.5 250.551 53.2667 246.784 52.8 243.051C52.3333 239.251 51.3667 235.818 49.9 232.751C48.5 229.618 46.3333 227.118 43.4 225.251C40.4667 223.318 36.5333 222.351 31.6 222.351C29.8 222.351 28.3 222.918 27.1 224.051C25.9667 225.184 25.4 227.118 25.4 229.851V270.851ZM142.838 249.851C142.838 254.784 142.071 259.284 140.538 263.351C139.071 267.351 136.971 270.851 134.238 273.851C131.371 276.918 127.871 279.351 123.738 281.151C119.604 282.884 114.971 283.751 109.838 283.751C105.571 283.751 101.471 283.018 97.5375 281.551C93.6708 280.084 90.2042 277.984 87.1375 275.251C84.0708 272.451 81.6375 269.084 79.8375 265.151C78.0375 261.218 77.1375 256.784 77.1375 251.851C77.1375 247.251 77.8375 242.918 79.2375 238.851C80.6375 234.784 82.6375 231.218 85.2375 228.151C88.1708 224.684 91.7375 221.951 95.9375 219.951C100.138 217.951 104.738 216.951 109.738 216.951C114.338 216.951 118.638 217.751 122.638 219.351C126.638 220.884 130.138 223.084 133.138 225.951C136.204 228.818 138.571 232.284 140.238 236.351C141.971 240.351 142.838 244.851 142.838 249.851ZM108.538 221.151C105.538 221.151 102.804 222.151 100.338 224.151C97.8708 226.084 95.9042 229.151 94.4375 233.351C92.9708 237.551 92.2375 243.051 92.2375 249.851C92.2375 256.118 93.1042 261.484 94.8375 265.951C96.5708 270.351 98.9042 273.718 101.838 276.051C104.838 278.384 108.171 279.551 111.838 279.551C115.238 279.551 118.104 278.418 120.438 276.151C122.838 273.818 124.638 270.584 125.838 266.451C127.104 262.318 127.738 257.484 127.738 251.951C127.738 245.151 126.871 239.484 125.138 234.951C123.471 230.351 121.171 226.918 118.238 224.651C115.371 222.318 112.138 221.151 108.538 221.151ZM182.684 217.351C190.084 217.351 195.651 218.451 199.384 220.651C201.451 221.851 203.018 223.284 204.084 224.951C205.218 226.551 205.984 228.184 206.384 229.851C206.851 231.518 207.084 233.018 207.084 234.351C207.084 237.751 206.351 240.618 204.884 242.951C203.418 245.284 201.651 247.184 199.584 248.651C197.584 250.118 195.684 251.218 193.884 251.951L207.484 272.951C208.884 275.018 210.251 276.651 211.584 277.851C212.984 278.984 214.818 279.551 217.084 279.551C217.284 279.951 217.384 280.551 217.384 281.351C217.451 282.084 217.384 282.618 217.184 282.951C216.718 283.218 215.384 283.418 213.184 283.551C211.051 283.684 208.984 283.751 206.984 283.751C203.984 283.751 201.418 282.851 199.284 281.051C197.151 279.184 195.318 277.118 193.784 274.851L182.084 257.451C181.618 256.718 181.084 256.151 180.484 255.751C179.951 255.284 179.051 254.951 177.784 254.751C176.518 254.551 174.551 254.451 171.884 254.451V270.551C171.884 273.284 172.184 275.284 172.784 276.551C173.451 277.751 174.384 278.518 175.584 278.851C176.851 279.184 178.384 279.418 180.184 279.551C180.718 279.818 180.984 280.384 180.984 281.251C180.984 282.051 180.718 282.618 180.184 282.951C178.851 282.884 177.251 282.851 175.384 282.851C173.518 282.851 171.651 282.818 169.784 282.751C167.918 282.751 166.318 282.751 164.984 282.751C163.651 282.751 162.018 282.751 160.084 282.751C158.218 282.818 156.318 282.851 154.384 282.851C152.518 282.851 150.918 282.884 149.584 282.951C149.118 282.618 148.884 282.051 148.884 281.251C148.884 280.384 149.118 279.818 149.584 279.551C151.451 279.418 152.984 279.184 154.184 278.851C155.384 278.518 156.284 277.751 156.884 276.551C157.551 275.284 157.884 273.284 157.884 270.551V230.451C157.884 227.651 157.551 225.651 156.884 224.451C156.284 223.251 155.384 222.484 154.184 222.151C152.984 221.751 151.451 221.518 149.584 221.451C149.118 221.118 148.884 220.551 148.884 219.751C148.884 218.884 149.118 218.318 149.584 218.051C150.384 218.051 151.884 218.051 154.084 218.051C156.351 217.984 158.918 217.918 161.784 217.851C164.718 217.718 167.618 217.618 170.484 217.551C173.351 217.484 175.884 217.451 178.084 217.451C180.351 217.384 181.884 217.351 182.684 217.351ZM191.984 236.051C191.984 231.984 191.351 228.918 190.084 226.851C188.818 224.718 187.218 223.284 185.284 222.551C183.351 221.818 181.418 221.451 179.484 221.451C176.818 221.451 174.884 222.084 173.684 223.351C172.484 224.618 171.884 226.951 171.884 230.351V250.251H176.184C178.984 250.251 181.584 249.918 183.984 249.251C186.384 248.584 188.318 247.251 189.784 245.251C191.251 243.184 191.984 240.118 191.984 236.051ZM281.166 282.751C280.233 283.218 279.366 283.518 278.566 283.651C277.833 283.851 276.6 283.951 274.866 283.951C274.866 283.951 274.433 283.551 273.566 282.751C272.766 281.884 271.866 280.818 270.866 279.551L237.366 239.751C236.233 238.418 235.433 237.751 234.966 237.751C234.7 237.751 234.5 237.951 234.366 238.351C234.233 238.751 234.166 239.218 234.166 239.751V269.451C234.166 272.451 234.4 274.618 234.866 275.951C235.333 277.284 236.2 278.151 237.466 278.551C238.733 278.951 240.533 279.284 242.866 279.551C243.2 279.818 243.366 280.384 243.366 281.251C243.366 282.051 243.2 282.618 242.866 282.951C241.2 282.884 239.8 282.851 238.666 282.851C237.533 282.851 236.433 282.818 235.366 282.751C234.366 282.751 233.133 282.751 231.666 282.751C230.2 282.751 228.933 282.751 227.866 282.751C226.8 282.818 225.7 282.851 224.566 282.851C223.5 282.851 222.133 282.884 220.466 282.951C220.2 282.618 220.066 282.051 220.066 281.251C220.066 280.384 220.2 279.818 220.466 279.551C222.8 279.284 224.6 278.951 225.866 278.551C227.133 278.151 228 277.284 228.466 275.951C228.933 274.551 229.166 272.384 229.166 269.451V227.751C228.9 226.418 228.033 225.084 226.566 223.751C225.166 222.351 223.4 221.584 221.266 221.451C221 221.118 220.866 220.551 220.866 219.751C220.866 218.884 221 218.318 221.266 218.051L237.566 218.251L246.466 228.751L272.966 259.951C273.7 260.818 274.333 261.318 274.866 261.451C275.4 261.518 275.666 260.918 275.666 259.651V231.551C275.666 228.484 275.433 226.284 274.966 224.951C274.5 223.618 273.633 222.751 272.366 222.351C271.1 221.951 269.3 221.651 266.966 221.451C266.7 221.118 266.566 220.551 266.566 219.751C266.566 218.884 266.7 218.318 266.966 218.051C269.5 218.118 271.5 218.184 272.966 218.251C274.433 218.251 276.3 218.251 278.566 218.251C279.966 218.251 281.166 218.251 282.166 218.251C283.166 218.184 284.2 218.151 285.266 218.151C286.4 218.084 287.766 218.051 289.366 218.051C289.7 218.318 289.866 218.884 289.866 219.751C289.866 220.551 289.7 221.118 289.366 221.451C287.033 221.651 285.233 221.984 283.966 222.451C282.7 222.851 281.833 223.718 281.366 225.051C280.9 226.384 280.666 228.551 280.666 231.551V272.551C280.666 273.551 280.7 274.884 280.766 276.551C280.9 278.151 281 279.584 281.066 280.851C281.133 282.118 281.166 282.751 281.166 282.751ZM324.39 246.251C327.723 246.251 330.023 245.884 331.29 245.151C332.623 244.351 333.357 242.584 333.49 239.851C333.823 239.518 334.557 239.351 335.69 239.351C336.823 239.351 337.523 239.518 337.79 239.851C337.723 241.318 337.657 242.718 337.59 244.051C337.59 245.318 337.59 246.784 337.59 248.451C337.59 250.184 337.59 251.651 337.59 252.851C337.657 254.051 337.723 255.518 337.79 257.251C337.523 257.518 336.823 257.651 335.69 257.651C334.557 257.651 333.823 257.518 333.49 257.251C333.357 254.984 332.657 253.351 331.39 252.351C330.19 251.351 327.857 250.851 324.39 250.851H316.29V273.751C316.29 275.084 316.69 276.218 317.49 277.151C318.357 278.084 319.323 278.551 320.39 278.551H330.49C334.29 278.551 337.323 277.318 339.59 274.851C341.923 272.384 343.59 269.351 344.59 265.751C345.257 265.618 346.023 265.618 346.89 265.751C347.823 265.818 348.557 265.984 349.09 266.251C348.69 268.784 348.323 271.584 347.99 274.651C347.657 277.651 347.123 280.418 346.39 282.951C346.39 282.951 345.89 282.918 344.89 282.851C343.957 282.851 342.757 282.851 341.29 282.851C339.823 282.851 338.29 282.818 336.69 282.751C335.157 282.751 333.79 282.751 332.59 282.751H309.09C309.09 282.751 308.523 282.751 307.39 282.751C306.257 282.751 304.857 282.751 303.19 282.751C301.523 282.818 299.79 282.851 297.99 282.851C296.257 282.918 294.79 282.951 293.59 282.951C293.323 282.618 293.19 282.051 293.19 281.251C293.19 280.384 293.323 279.818 293.59 279.551C295.923 279.418 297.723 279.184 298.99 278.851C300.257 278.518 301.123 277.751 301.59 276.551C302.057 275.284 302.29 273.284 302.29 270.551V230.551C302.29 227.751 302.057 225.751 301.59 224.551C301.123 223.284 300.257 222.484 298.99 222.151C297.723 221.751 295.923 221.518 293.59 221.451C293.323 221.118 293.19 220.551 293.19 219.751C293.19 218.884 293.323 218.318 293.59 218.051C294.857 218.051 296.357 218.084 298.09 218.151C299.823 218.151 301.523 218.184 303.19 218.251C304.857 218.251 306.223 218.251 307.29 218.251C308.423 218.251 308.99 218.251 308.99 218.251H338.49C339.69 218.251 340.59 218.218 341.19 218.151C341.79 218.084 342.523 217.984 343.39 217.851C343.657 217.851 343.79 217.951 343.79 218.151C343.857 218.351 343.923 219.018 343.99 220.151C344.057 221.284 344.123 222.618 344.19 224.151C344.323 225.684 344.457 227.251 344.59 228.851C344.723 230.384 344.857 231.651 344.99 232.651C344.523 232.918 343.823 233.084 342.89 233.151C342.023 233.218 341.29 233.218 340.69 233.151C339.957 230.818 339.157 228.884 338.29 227.351C337.423 225.751 336.257 224.551 334.79 223.751C333.39 222.884 331.423 222.451 328.89 222.451H320.39C319.19 222.451 318.19 222.984 317.39 224.051C316.657 225.051 316.29 226.151 316.29 227.351V246.251H324.39ZM387.927 278.551C391.461 278.551 394.261 277.984 396.327 276.851C398.461 275.718 400.127 274.184 401.327 272.251C402.527 270.318 403.461 268.151 404.127 265.751C404.727 265.684 405.461 265.684 406.327 265.751C407.261 265.818 407.961 265.984 408.427 266.251C408.161 268.851 407.794 271.651 407.327 274.651C406.861 277.651 406.361 280.418 405.827 282.951C405.827 282.951 405.327 282.918 404.327 282.851C403.394 282.851 402.227 282.851 400.827 282.851C399.494 282.851 398.161 282.818 396.827 282.751C395.561 282.751 394.561 282.751 393.827 282.751H371.527C370.527 282.751 369.194 282.751 367.527 282.751C365.861 282.818 364.127 282.851 362.327 282.851C360.594 282.851 359.127 282.851 357.927 282.851C356.727 282.918 356.127 282.951 356.127 282.951C355.661 282.618 355.427 282.051 355.427 281.251C355.427 280.384 355.661 279.818 356.127 279.551C357.994 279.418 359.527 279.184 360.727 278.851C361.927 278.518 362.827 277.751 363.427 276.551C364.094 275.284 364.427 273.284 364.427 270.551V230.451C364.427 227.651 364.094 225.651 363.427 224.451C362.827 223.251 361.927 222.484 360.727 222.151C359.527 221.751 357.994 221.518 356.127 221.451C355.661 221.118 355.427 220.551 355.427 219.751C355.427 218.884 355.661 218.318 356.127 218.051C356.127 218.051 356.727 218.084 357.927 218.151C359.127 218.151 360.594 218.151 362.327 218.151C364.061 218.151 365.761 218.184 367.427 218.251C369.161 218.251 370.527 218.251 371.527 218.251C372.861 218.251 374.161 218.251 375.427 218.251C376.761 218.184 378.294 218.151 380.027 218.151C381.761 218.084 383.994 218.051 386.727 218.051C387.261 218.318 387.527 218.884 387.527 219.751C387.527 220.551 387.261 221.118 386.727 221.451C384.927 221.518 383.394 221.751 382.127 222.151C380.927 222.484 379.994 223.251 379.327 224.451C378.727 225.651 378.427 227.651 378.427 230.451V270.651C378.427 273.651 378.727 275.718 379.327 276.851C379.994 277.984 380.861 278.551 381.927 278.551H387.927ZM427.242 274.851C426.709 276.251 426.776 277.251 427.442 277.851C428.109 278.451 429.076 278.884 430.342 279.151C431.609 279.351 432.876 279.484 434.142 279.551C434.476 279.818 434.642 280.384 434.642 281.251C434.642 282.051 434.476 282.618 434.142 282.951C432.276 282.884 430.109 282.818 427.642 282.751C425.176 282.751 422.909 282.751 420.842 282.751C418.909 282.751 417.309 282.751 416.042 282.751C414.842 282.818 413.309 282.884 411.442 282.951C411.176 282.618 411.042 282.051 411.042 281.251C411.042 280.384 411.176 279.818 411.442 279.551C412.909 279.418 414.209 279.218 415.342 278.951C416.542 278.684 417.642 278.084 418.642 277.151C419.642 276.151 420.576 274.618 421.442 272.551L443.142 221.351C444.276 221.351 445.609 221.051 447.142 220.451C448.676 219.851 450.109 219.184 451.442 218.451C452.776 217.718 453.676 217.218 454.142 216.951L474.742 274.151C475.342 275.818 476.076 277.018 476.942 277.751C477.876 278.484 478.909 278.951 480.042 279.151C481.242 279.284 482.476 279.418 483.742 279.551C484.076 279.818 484.242 280.384 484.242 281.251C484.242 282.051 484.076 282.618 483.742 282.951C481.876 282.884 479.676 282.818 477.142 282.751C474.676 282.751 472.409 282.751 470.342 282.751C469.076 282.751 467.309 282.751 465.042 282.751C462.842 282.818 460.642 282.851 458.442 282.851C456.242 282.851 454.509 282.884 453.242 282.951C452.976 282.618 452.842 282.051 452.842 281.251C452.842 280.384 452.976 279.818 453.242 279.551C454.842 279.418 456.276 279.318 457.542 279.251C458.876 279.184 459.842 278.884 460.442 278.351C461.042 277.818 461.109 276.884 460.642 275.551L455.042 259.251H436.042C434.842 259.251 434.009 259.384 433.542 259.651C433.142 259.851 432.809 260.284 432.542 260.951L427.242 274.851ZM438.042 254.451H453.242L445.042 230.751H444.342L435.542 253.151C435.342 253.618 435.442 253.951 435.842 254.151C436.242 254.351 436.976 254.451 438.042 254.451ZM526.866 219.651C527.199 222.518 527.466 225.118 527.666 227.451C527.866 229.718 527.966 232.184 527.966 234.851C527.432 235.318 526.632 235.584 525.566 235.651C524.566 235.651 523.699 235.551 522.966 235.351C522.366 233.151 521.566 230.951 520.566 228.751C519.632 226.551 518.332 224.718 516.666 223.251C514.999 221.784 512.732 221.051 509.866 221.051C507.332 221.051 505.266 221.851 503.666 223.451C502.132 225.051 501.366 227.251 501.366 230.051C501.366 231.918 501.999 233.718 503.266 235.451C504.599 237.184 506.132 238.718 507.866 240.051C509.599 241.318 511.132 242.284 512.466 242.951C514.399 243.951 516.632 245.251 519.166 246.851C521.699 248.384 523.932 250.218 525.866 252.351C527.332 253.951 528.566 255.718 529.566 257.651C530.566 259.518 531.066 261.751 531.066 264.351C531.066 267.418 530.366 270.118 528.966 272.451C527.632 274.784 526.066 276.718 524.266 278.251C520.199 281.918 515.166 283.751 509.166 283.751C505.699 283.751 502.966 283.651 500.966 283.451C498.966 283.251 497.366 283.018 496.166 282.751C495.032 282.484 493.966 282.251 492.966 282.051C491.966 281.851 490.766 281.751 489.366 281.751C488.832 279.884 488.366 277.618 487.966 274.951C487.632 272.218 487.466 268.984 487.466 265.251C488.266 265.051 489.066 264.884 489.866 264.751C490.732 264.551 491.599 264.618 492.466 264.951C493.132 267.951 494.266 270.551 495.866 272.751C497.466 274.951 499.332 276.651 501.466 277.851C503.666 278.984 505.866 279.551 508.066 279.551C511.132 279.551 513.632 278.784 515.566 277.251C517.499 275.718 518.466 273.718 518.466 271.251C518.466 268.451 517.532 266.018 515.666 263.951C513.799 261.884 511.699 260.051 509.366 258.451C507.966 257.451 506.199 256.384 504.066 255.251C501.999 254.051 499.866 252.718 497.666 251.251C495.532 249.718 493.699 247.918 492.166 245.851C491.032 244.318 490.199 242.484 489.666 240.351C489.132 238.218 488.866 236.184 488.866 234.251C488.866 231.851 489.466 229.551 490.666 227.351C491.932 225.084 493.499 223.218 495.366 221.751C497.432 220.084 499.799 218.884 502.466 218.151C505.199 217.351 507.699 216.951 509.966 216.951C513.099 216.951 515.532 217.118 517.266 217.451C519.066 217.784 520.666 218.184 522.066 218.651C523.466 219.051 525.066 219.384 526.866 219.651ZM599.856 283.751C594.99 283.751 590.59 283.284 586.656 282.351C582.723 281.351 579.156 279.718 575.956 277.451C573.29 275.518 571.056 273.118 569.256 270.251C567.456 267.318 566.09 264.218 565.156 260.951C564.29 257.618 563.856 254.384 563.856 251.251C563.856 245.718 564.79 240.851 566.656 236.651C568.59 232.384 571.223 228.784 574.556 225.851C577.89 222.918 581.723 220.718 586.056 219.251C590.456 217.718 595.09 216.951 599.956 216.951C604.09 216.951 607.456 217.284 610.056 217.951C612.656 218.618 614.856 219.318 616.656 220.051C618.456 220.784 620.19 221.251 621.856 221.451C622.323 224.184 622.723 226.818 623.056 229.351C623.456 231.818 623.79 234.351 624.056 236.951C623.523 237.218 622.823 237.418 621.956 237.551C621.09 237.684 620.356 237.651 619.756 237.451C618.89 234.584 617.69 231.918 616.156 229.451C614.69 226.918 612.59 224.884 609.856 223.351C607.123 221.818 603.456 221.051 598.856 221.051C594.923 221.051 591.456 222.351 588.456 224.951C585.456 227.484 583.123 230.884 581.456 235.151C579.79 239.418 578.956 244.151 578.956 249.351C578.956 253.218 579.49 256.918 580.556 260.451C581.623 263.984 583.09 267.118 584.956 269.851C586.89 272.518 589.123 274.651 591.656 276.251C594.19 277.784 596.89 278.551 599.756 278.551C603.29 278.551 606.99 277.784 610.856 276.251C614.723 274.718 618.423 272.018 621.956 268.151C622.49 268.151 623.09 268.384 623.756 268.851C624.49 269.318 624.99 269.784 625.256 270.251C621.856 274.718 617.99 278.084 613.656 280.351C609.323 282.618 604.723 283.751 599.856 283.751ZM700.162 249.851C700.162 254.784 699.395 259.284 697.862 263.351C696.395 267.351 694.295 270.851 691.562 273.851C688.695 276.918 685.195 279.351 681.062 281.151C676.928 282.884 672.295 283.751 667.162 283.751C662.895 283.751 658.795 283.018 654.862 281.551C650.995 280.084 647.528 277.984 644.462 275.251C641.395 272.451 638.962 269.084 637.162 265.151C635.362 261.218 634.462 256.784 634.462 251.851C634.462 247.251 635.162 242.918 636.562 238.851C637.962 234.784 639.962 231.218 642.562 228.151C645.495 224.684 649.062 221.951 653.262 219.951C657.462 217.951 662.062 216.951 667.062 216.951C671.662 216.951 675.962 217.751 679.962 219.351C683.962 220.884 687.462 223.084 690.462 225.951C693.528 228.818 695.895 232.284 697.562 236.351C699.295 240.351 700.162 244.851 700.162 249.851ZM665.862 221.151C662.862 221.151 660.128 222.151 657.662 224.151C655.195 226.084 653.228 229.151 651.762 233.351C650.295 237.551 649.562 243.051 649.562 249.851C649.562 256.118 650.428 261.484 652.162 265.951C653.895 270.351 656.228 273.718 659.162 276.051C662.162 278.384 665.495 279.551 669.162 279.551C672.562 279.551 675.428 278.418 677.762 276.151C680.162 273.818 681.962 270.584 683.162 266.451C684.428 262.318 685.062 257.484 685.062 251.951C685.062 245.151 684.195 239.484 682.462 234.951C680.795 230.351 678.495 226.918 675.562 224.651C672.695 222.318 669.462 221.151 665.862 221.151ZM740.009 217.351C747.409 217.351 752.975 218.451 756.709 220.651C758.775 221.851 760.342 223.284 761.409 224.951C762.542 226.551 763.309 228.184 763.709 229.851C764.175 231.518 764.409 233.018 764.409 234.351C764.409 237.751 763.675 240.618 762.209 242.951C760.742 245.284 758.975 247.184 756.909 248.651C754.909 250.118 753.009 251.218 751.209 251.951L764.809 272.951C766.209 275.018 767.575 276.651 768.909 277.851C770.309 278.984 772.142 279.551 774.409 279.551C774.609 279.951 774.709 280.551 774.709 281.351C774.775 282.084 774.709 282.618 774.509 282.951C774.042 283.218 772.709 283.418 770.509 283.551C768.375 283.684 766.309 283.751 764.309 283.751C761.309 283.751 758.742 282.851 756.609 281.051C754.475 279.184 752.642 277.118 751.109 274.851L739.409 257.451C738.942 256.718 738.409 256.151 737.809 255.751C737.275 255.284 736.375 254.951 735.109 254.751C733.842 254.551 731.875 254.451 729.209 254.451V270.551C729.209 273.284 729.509 275.284 730.109 276.551C730.775 277.751 731.709 278.518 732.909 278.851C734.175 279.184 735.709 279.418 737.509 279.551C738.042 279.818 738.309 280.384 738.309 281.251C738.309 282.051 738.042 282.618 737.509 282.951C736.175 282.884 734.575 282.851 732.709 282.851C730.842 282.851 728.975 282.818 727.109 282.751C725.242 282.751 723.642 282.751 722.309 282.751C720.975 282.751 719.342 282.751 717.409 282.751C715.542 282.818 713.642 282.851 711.709 282.851C709.842 282.851 708.242 282.884 706.909 282.951C706.442 282.618 706.209 282.051 706.209 281.251C706.209 280.384 706.442 279.818 706.909 279.551C708.775 279.418 710.309 279.184 711.509 278.851C712.709 278.518 713.609 277.751 714.209 276.551C714.875 275.284 715.209 273.284 715.209 270.551V230.451C715.209 227.651 714.875 225.651 714.209 224.451C713.609 223.251 712.709 222.484 711.509 222.151C710.309 221.751 708.775 221.518 706.909 221.451C706.442 221.118 706.209 220.551 706.209 219.751C706.209 218.884 706.442 218.318 706.909 218.051C707.709 218.051 709.209 218.051 711.409 218.051C713.675 217.984 716.242 217.918 719.109 217.851C722.042 217.718 724.942 217.618 727.809 217.551C730.675 217.484 733.209 217.451 735.409 217.451C737.675 217.384 739.209 217.351 740.009 217.351ZM749.309 236.051C749.309 231.984 748.675 228.918 747.409 226.851C746.142 224.718 744.542 223.284 742.609 222.551C740.675 221.818 738.742 221.451 736.809 221.451C734.142 221.451 732.209 222.084 731.009 223.351C729.809 224.618 729.209 226.951 729.209 230.351V250.251H733.509C736.309 250.251 738.909 249.918 741.309 249.251C743.709 248.584 745.642 247.251 747.109 245.251C748.575 243.184 749.309 240.118 749.309 236.051ZM811.591 217.351C818.991 217.351 824.557 218.451 828.291 220.651C830.357 221.851 831.924 223.284 832.991 224.951C834.124 226.551 834.891 228.184 835.291 229.851C835.757 231.518 835.991 233.018 835.991 234.351C835.991 237.751 835.257 240.618 833.791 242.951C832.324 245.284 830.557 247.184 828.491 248.651C826.491 250.118 824.591 251.218 822.791 251.951L836.391 272.951C837.791 275.018 839.157 276.651 840.491 277.851C841.891 278.984 843.724 279.551 845.991 279.551C846.191 279.951 846.291 280.551 846.291 281.351C846.357 282.084 846.291 282.618 846.091 282.951C845.624 283.218 844.291 283.418 842.091 283.551C839.957 283.684 837.891 283.751 835.891 283.751C832.891 283.751 830.324 282.851 828.191 281.051C826.057 279.184 824.224 277.118 822.691 274.851L810.991 257.451C810.524 256.718 809.991 256.151 809.391 255.751C808.857 255.284 807.957 254.951 806.691 254.751C805.424 254.551 803.457 254.451 800.791 254.451V270.551C800.791 273.284 801.091 275.284 801.691 276.551C802.357 277.751 803.291 278.518 804.491 278.851C805.757 279.184 807.291 279.418 809.091 279.551C809.624 279.818 809.891 280.384 809.891 281.251C809.891 282.051 809.624 282.618 809.091 282.951C807.757 282.884 806.157 282.851 804.291 282.851C802.424 282.851 800.557 282.818 798.691 282.751C796.824 282.751 795.224 282.751 793.891 282.751C792.557 282.751 790.924 282.751 788.991 282.751C787.124 282.818 785.224 282.851 783.291 282.851C781.424 282.851 779.824 282.884 778.491 282.951C778.024 282.618 777.791 282.051 777.791 281.251C777.791 280.384 778.024 279.818 778.491 279.551C780.357 279.418 781.891 279.184 783.091 278.851C784.291 278.518 785.191 277.751 785.791 276.551C786.457 275.284 786.791 273.284 786.791 270.551V230.451C786.791 227.651 786.457 225.651 785.791 224.451C785.191 223.251 784.291 222.484 783.091 222.151C781.891 221.751 780.357 221.518 778.491 221.451C778.024 221.118 777.791 220.551 777.791 219.751C777.791 218.884 778.024 218.318 778.491 218.051C779.291 218.051 780.791 218.051 782.991 218.051C785.257 217.984 787.824 217.918 790.691 217.851C793.624 217.718 796.524 217.618 799.391 217.551C802.257 217.484 804.791 217.451 806.991 217.451C809.257 217.384 810.791 217.351 811.591 217.351ZM820.891 236.051C820.891 231.984 820.257 228.918 818.991 226.851C817.724 224.718 816.124 223.284 814.191 222.551C812.257 221.818 810.324 221.451 808.391 221.451C805.724 221.451 803.791 222.084 802.591 223.351C801.391 224.618 800.791 226.951 800.791 230.351V250.251H805.091C807.891 250.251 810.491 249.918 812.891 249.251C815.291 248.584 817.224 247.251 818.691 245.251C820.157 243.184 820.891 240.118 820.891 236.051ZM879.273 246.251C882.606 246.251 884.906 245.884 886.173 245.151C887.506 244.351 888.239 242.584 888.373 239.851C888.706 239.518 889.439 239.351 890.573 239.351C891.706 239.351 892.406 239.518 892.673 239.851C892.606 241.318 892.539 242.718 892.473 244.051C892.473 245.318 892.473 246.784 892.473 248.451C892.473 250.184 892.473 251.651 892.473 252.851C892.539 254.051 892.606 255.518 892.673 257.251C892.406 257.518 891.706 257.651 890.573 257.651C889.439 257.651 888.706 257.518 888.373 257.251C888.239 254.984 887.539 253.351 886.273 252.351C885.073 251.351 882.739 250.851 879.273 250.851H871.173V273.751C871.173 275.084 871.573 276.218 872.373 277.151C873.239 278.084 874.206 278.551 875.273 278.551H885.373C889.173 278.551 892.206 277.318 894.473 274.851C896.806 272.384 898.473 269.351 899.473 265.751C900.139 265.618 900.906 265.618 901.773 265.751C902.706 265.818 903.439 265.984 903.973 266.251C903.573 268.784 903.206 271.584 902.873 274.651C902.539 277.651 902.006 280.418 901.273 282.951C901.273 282.951 900.773 282.918 899.773 282.851C898.839 282.851 897.639 282.851 896.173 282.851C894.706 282.851 893.173 282.818 891.573 282.751C890.039 282.751 888.673 282.751 887.473 282.751H863.973C863.973 282.751 863.406 282.751 862.273 282.751C861.139 282.751 859.739 282.751 858.073 282.751C856.406 282.818 854.673 282.851 852.873 282.851C851.139 282.918 849.673 282.951 848.473 282.951C848.206 282.618 848.073 282.051 848.073 281.251C848.073 280.384 848.206 279.818 848.473 279.551C850.806 279.418 852.606 279.184 853.873 278.851C855.139 278.518 856.006 277.751 856.473 276.551C856.939 275.284 857.173 273.284 857.173 270.551V230.551C857.173 227.751 856.939 225.751 856.473 224.551C856.006 223.284 855.139 222.484 853.873 222.151C852.606 221.751 850.806 221.518 848.473 221.451C848.206 221.118 848.073 220.551 848.073 219.751C848.073 218.884 848.206 218.318 848.473 218.051C849.739 218.051 851.239 218.084 852.973 218.151C854.706 218.151 856.406 218.184 858.073 218.251C859.739 218.251 861.106 218.251 862.173 218.251C863.306 218.251 863.873 218.251 863.873 218.251H893.373C894.573 218.251 895.473 218.218 896.073 218.151C896.673 218.084 897.406 217.984 898.273 217.851C898.539 217.851 898.673 217.951 898.673 218.151C898.739 218.351 898.806 219.018 898.873 220.151C898.939 221.284 899.006 222.618 899.073 224.151C899.206 225.684 899.339 227.251 899.473 228.851C899.606 230.384 899.739 231.651 899.873 232.651C899.406 232.918 898.706 233.084 897.773 233.151C896.906 233.218 896.173 233.218 895.573 233.151C894.839 230.818 894.039 228.884 893.173 227.351C892.306 225.751 891.139 224.551 889.673 223.751C888.273 222.884 886.306 222.451 883.773 222.451H875.273C874.073 222.451 873.073 222.984 872.273 224.051C871.539 225.051 871.173 226.151 871.173 227.351V246.251H879.273ZM948.41 270.451C948.41 273.184 948.643 275.184 949.11 276.451C949.643 277.718 950.61 278.518 952.01 278.851C953.41 279.184 955.443 279.418 958.11 279.551C958.443 279.818 958.61 280.384 958.61 281.251C958.61 282.051 958.443 282.618 958.11 282.951C955.643 282.884 953.01 282.818 950.21 282.751C947.477 282.751 944.477 282.751 941.21 282.751C938.01 282.751 935.077 282.751 932.41 282.751C929.743 282.818 927.177 282.884 924.71 282.951C924.443 282.618 924.31 282.051 924.31 281.251C924.31 280.384 924.443 279.818 924.71 279.551C927.377 279.418 929.41 279.184 930.81 278.851C932.21 278.518 933.143 277.718 933.61 276.451C934.143 275.184 934.41 273.184 934.41 270.451V232.151C934.41 229.084 934.077 226.684 933.41 224.951C932.81 223.218 931.577 222.351 929.71 222.351H924.81C921.543 222.351 918.843 223.118 916.71 224.651C914.643 226.118 913.11 228.851 912.11 232.851C911.51 232.851 910.843 232.818 910.11 232.751C909.377 232.684 908.743 232.551 908.21 232.351C908.743 229.951 909.243 227.484 909.71 224.951C910.177 222.418 910.51 220.018 910.71 217.751C910.71 217.551 910.843 217.451 911.11 217.451C912.377 217.518 914.343 217.618 917.01 217.751C919.743 217.884 922.677 218.018 925.81 218.151C929.01 218.218 931.877 218.251 934.41 218.251H948.51C951.177 218.251 954.01 218.218 957.01 218.151C960.077 218.018 962.877 217.884 965.41 217.751C967.943 217.618 969.777 217.518 970.91 217.451C971.11 217.451 971.21 217.551 971.21 217.751C971.277 220.018 971.41 222.384 971.61 224.851C971.877 227.318 972.177 229.718 972.51 232.051C972.043 232.251 971.41 232.384 970.61 232.451C969.81 232.518 969.143 232.551 968.61 232.551C967.743 228.684 966.21 226.018 964.01 224.551C961.877 223.084 958.943 222.351 955.21 222.351H953.01C951.21 222.351 949.977 223.251 949.31 225.051C948.71 226.784 948.41 229.251 948.41 232.451V270.451ZM1042.06 249.851C1042.06 254.784 1041.29 259.284 1039.76 263.351C1038.29 267.351 1036.19 270.851 1033.46 273.851C1030.59 276.918 1027.09 279.351 1022.96 281.151C1018.82 282.884 1014.19 283.751 1009.06 283.751C1004.79 283.751 1000.69 283.018 996.756 281.551C992.89 280.084 989.423 277.984 986.356 275.251C983.29 272.451 980.856 269.084 979.056 265.151C977.256 261.218 976.356 256.784 976.356 251.851C976.356 247.251 977.056 242.918 978.456 238.851C979.856 234.784 981.856 231.218 984.456 228.151C987.39 224.684 990.956 221.951 995.156 219.951C999.356 217.951 1003.96 216.951 1008.96 216.951C1013.56 216.951 1017.86 217.751 1021.86 219.351C1025.86 220.884 1029.36 223.084 1032.36 225.951C1035.42 228.818 1037.79 232.284 1039.46 236.351C1041.19 240.351 1042.06 244.851 1042.06 249.851ZM1007.76 221.151C1004.76 221.151 1002.02 222.151 999.556 224.151C997.09 226.084 995.123 229.151 993.656 233.351C992.19 237.551 991.456 243.051 991.456 249.851C991.456 256.118 992.323 261.484 994.056 265.951C995.79 270.351 998.123 273.718 1001.06 276.051C1004.06 278.384 1007.39 279.551 1011.06 279.551C1014.46 279.551 1017.32 278.418 1019.66 276.151C1022.06 273.818 1023.86 270.584 1025.06 266.451C1026.32 262.318 1026.96 257.484 1026.96 251.951C1026.96 245.151 1026.09 239.484 1024.36 234.951C1022.69 230.351 1020.39 226.918 1017.46 224.651C1014.59 222.318 1011.36 221.151 1007.76 221.151ZM1081.9 217.351C1089.3 217.351 1094.87 218.451 1098.6 220.651C1100.67 221.851 1102.24 223.284 1103.3 224.951C1104.44 226.551 1105.2 228.184 1105.6 229.851C1106.07 231.518 1106.3 233.018 1106.3 234.351C1106.3 237.751 1105.57 240.618 1104.1 242.951C1102.64 245.284 1100.87 247.184 1098.8 248.651C1096.8 250.118 1094.9 251.218 1093.1 251.951L1106.7 272.951C1108.1 275.018 1109.47 276.651 1110.8 277.851C1112.2 278.984 1114.04 279.551 1116.3 279.551C1116.5 279.951 1116.6 280.551 1116.6 281.351C1116.67 282.084 1116.6 282.618 1116.4 282.951C1115.94 283.218 1114.6 283.418 1112.4 283.551C1110.27 283.684 1108.2 283.751 1106.2 283.751C1103.2 283.751 1100.64 282.851 1098.5 281.051C1096.37 279.184 1094.54 277.118 1093 274.851L1081.3 257.451C1080.84 256.718 1080.3 256.151 1079.7 255.751C1079.17 255.284 1078.27 254.951 1077 254.751C1075.74 254.551 1073.77 254.451 1071.1 254.451V270.551C1071.1 273.284 1071.4 275.284 1072 276.551C1072.67 277.751 1073.6 278.518 1074.8 278.851C1076.07 279.184 1077.6 279.418 1079.4 279.551C1079.94 279.818 1080.2 280.384 1080.2 281.251C1080.2 282.051 1079.94 282.618 1079.4 282.951C1078.07 282.884 1076.47 282.851 1074.6 282.851C1072.74 282.851 1070.87 282.818 1069 282.751C1067.14 282.751 1065.54 282.751 1064.2 282.751C1062.87 282.751 1061.24 282.751 1059.3 282.751C1057.44 282.818 1055.54 282.851 1053.6 282.851C1051.74 282.851 1050.14 282.884 1048.8 282.951C1048.34 282.618 1048.1 282.051 1048.1 281.251C1048.1 280.384 1048.34 279.818 1048.8 279.551C1050.67 279.418 1052.2 279.184 1053.4 278.851C1054.6 278.518 1055.5 277.751 1056.1 276.551C1056.77 275.284 1057.1 273.284 1057.1 270.551V230.451C1057.1 227.651 1056.77 225.651 1056.1 224.451C1055.5 223.251 1054.6 222.484 1053.4 222.151C1052.2 221.751 1050.67 221.518 1048.8 221.451C1048.34 221.118 1048.1 220.551 1048.1 219.751C1048.1 218.884 1048.34 218.318 1048.8 218.051C1049.6 218.051 1051.1 218.051 1053.3 218.051C1055.57 217.984 1058.14 217.918 1061 217.851C1063.94 217.718 1066.84 217.618 1069.7 217.551C1072.57 217.484 1075.1 217.451 1077.3 217.451C1079.57 217.384 1081.1 217.351 1081.9 217.351ZM1091.2 236.051C1091.2 231.984 1090.57 228.918 1089.3 226.851C1088.04 224.718 1086.44 223.284 1084.5 222.551C1082.57 221.818 1080.64 221.451 1078.7 221.451C1076.04 221.451 1074.1 222.084 1072.9 223.351C1071.7 224.618 1071.1 226.951 1071.1 230.351V250.251H1075.4C1078.2 250.251 1080.8 249.918 1083.2 249.251C1085.6 248.584 1087.54 247.251 1089 245.251C1090.47 243.184 1091.2 240.118 1091.2 236.051Z" fill="#004AAB"/>
</svg>
