<svg width="1118" height="300" viewBox="0 0 1118 300" fill="none" xmlns="http://www.w3.org/2000/svg">
<path d="M491.5 0C491.776 0 492 0.223858 492 0.5V5.5C492 5.74171 491.829 5.94371 491.601 5.99023C491.568 5.99686 491.534 6 491.5 6H484C477.373 6 472 11.3726 472 18V69H540V18C540 11.3726 534.627 6 528 6H521.5C521.224 6 521 5.77614 521 5.5V0.5C521 0.223858 521.224 0 521.5 0H615C655.869 0 689 33.1309 689 74V76C689 116.869 655.869 150 615 150H520.5C520.466 150 520.432 149.997 520.399 149.99C520.204 149.95 520.05 149.796 520.01 149.601C520.003 149.568 520 149.534 520 149.5V144.5C520 144.466 520.003 144.432 520.01 144.399C520.056 144.171 520.258 144 520.5 144H528C534.627 144 540 138.627 540 132V79H472V132C472 138.627 477.373 144 484 144H491.5C491.776 144 492 144.224 492 144.5V149.5C492 149.742 491.829 149.944 491.601 149.99C491.568 149.997 491.534 150 491.5 150H429.5C429.466 150 429.432 149.997 429.399 149.99C429.204 149.95 429.05 149.796 429.01 149.601C429.003 149.568 429 149.534 429 149.5V144.5C429 144.466 429.003 144.432 429.01 144.399C429.056 144.171 429.258 144 429.5 144H436C442.627 144 448 138.627 448 132V18C448 11.3726 442.627 6 436 6H429.5C429.224 6 429 5.77614 429 5.5V0.5C429 0.223858 429.224 1.5603e-08 429.5 0H491.5ZM564.378 15C564.131 15.9589 564 16.9641 564 18V69H628.5C628.776 69 629 69.2239 629 69.5V70.1621C629.118 70.4172 629.186 70.7005 629.186 71V95C629.186 96.1046 628.29 97 627.186 97H621.186C620.081 97 619.186 96.1046 619.186 95V79H613.186V90C613.186 91.1046 612.29 92 611.186 92H605.186C604.081 92 603.186 91.1046 603.186 90V79H564V132C564 132.337 564.015 132.67 564.042 133H610C642.585 133 669 106.585 669 74C669 41.4152 642.585 15 610 15H564.378Z" fill="#004AAB"/>
<path d="M18.5 282C17.5 282 16.1333 282 14.4 282C12.7333 282.067 11.0333 282.1 9.3 282.1C7.56667 282.1 6.1 282.1 4.9 282.1C3.7 282.167 3.1 282.2 3.1 282.2C2.63333 281.867 2.4 281.3 2.4 280.5C2.4 279.633 2.63333 279.067 3.1 278.8C4.96667 278.667 6.5 278.433 7.7 278.1C8.9 277.767 9.8 277 10.4 275.8C11.0667 274.533 11.4 272.533 11.4 269.8V229.7C11.4 226.9 11.0667 224.9 10.4 223.7C9.8 222.5 8.9 221.733 7.7 221.4C6.5 221 4.96667 220.767 3.1 220.7C2.63333 220.367 2.4 219.8 2.4 219C2.4 218.133 2.63333 217.567 3.1 217.3C3.1 217.3 3.7 217.333 4.9 217.4C6.1 217.4 7.56667 217.4 9.3 217.4C11.0333 217.4 12.7333 217.433 14.4 217.5C16.1333 217.5 17.5 217.5 18.5 217.5C20.5 217.5 22.5667 217.5 24.7 217.5C26.9 217.433 29.3333 217.4 32 217.4C40.2 217.4 47 218.933 52.4 222C57.8 225 61.8333 229.067 64.5 234.2C67.2333 239.267 68.6 244.9 68.6 251.1C68.6 256.167 67.8333 260.7 66.3 264.7C64.8333 268.633 62.9 271.667 60.5 273.8C56.9667 276.867 52.8667 279.033 48.2 280.3C43.6 281.567 39.1 282.2 34.7 282.2C33.3667 282.2 31.6667 282.167 29.6 282.1C27.6 282.1 25.5667 282.067 23.5 282C21.5 282 19.8333 282 18.5 282ZM25.4 270.1C25.4 273.433 26.1333 275.6 27.6 276.6C29.0667 277.533 31.5333 278 35 278C36.9333 278 38.9667 277.6 41.1 276.8C43.2333 275.933 45.2333 274.567 47.1 272.7C48.9667 270.767 50.5 268.233 51.7 265.1C52.9 261.967 53.5 258.133 53.5 253.6C53.5 249.8 53.2667 246.033 52.8 242.3C52.3333 238.5 51.3667 235.067 49.9 232C48.5 228.867 46.3333 226.367 43.4 224.5C40.4667 222.567 36.5333 221.6 31.6 221.6C29.8 221.6 28.3 222.167 27.1 223.3C25.9667 224.433 25.4 226.367 25.4 229.1V270.1ZM142.838 249.1C142.838 254.033 142.071 258.533 140.538 262.6C139.071 266.6 136.971 270.1 134.238 273.1C131.371 276.167 127.871 278.6 123.738 280.4C119.604 282.133 114.971 283 109.838 283C105.571 283 101.471 282.267 97.5375 280.8C93.6708 279.333 90.2042 277.233 87.1375 274.5C84.0708 271.7 81.6375 268.333 79.8375 264.4C78.0375 260.467 77.1375 256.033 77.1375 251.1C77.1375 246.5 77.8375 242.167 79.2375 238.1C80.6375 234.033 82.6375 230.467 85.2375 227.4C88.1708 223.933 91.7375 221.2 95.9375 219.2C100.138 217.2 104.738 216.2 109.738 216.2C114.338 216.2 118.638 217 122.638 218.6C126.638 220.133 130.138 222.333 133.138 225.2C136.204 228.067 138.571 231.533 140.238 235.6C141.971 239.6 142.838 244.1 142.838 249.1ZM108.538 220.4C105.538 220.4 102.804 221.4 100.338 223.4C97.8708 225.333 95.9042 228.4 94.4375 232.6C92.9708 236.8 92.2375 242.3 92.2375 249.1C92.2375 255.367 93.1042 260.733 94.8375 265.2C96.5708 269.6 98.9042 272.967 101.838 275.3C104.838 277.633 108.171 278.8 111.838 278.8C115.238 278.8 118.104 277.667 120.438 275.4C122.838 273.067 124.638 269.833 125.838 265.7C127.104 261.567 127.738 256.733 127.738 251.2C127.738 244.4 126.871 238.733 125.138 234.2C123.471 229.6 121.171 226.167 118.238 223.9C115.371 221.567 112.138 220.4 108.538 220.4ZM182.684 216.6C190.084 216.6 195.651 217.7 199.384 219.9C201.451 221.1 203.018 222.533 204.084 224.2C205.218 225.8 205.984 227.433 206.384 229.1C206.851 230.767 207.084 232.267 207.084 233.6C207.084 237 206.351 239.867 204.884 242.2C203.418 244.533 201.651 246.433 199.584 247.9C197.584 249.367 195.684 250.467 193.884 251.2L207.484 272.2C208.884 274.267 210.251 275.9 211.584 277.1C212.984 278.233 214.818 278.8 217.084 278.8C217.284 279.2 217.384 279.8 217.384 280.6C217.451 281.333 217.384 281.867 217.184 282.2C216.718 282.467 215.384 282.667 213.184 282.8C211.051 282.933 208.984 283 206.984 283C203.984 283 201.418 282.1 199.284 280.3C197.151 278.433 195.318 276.367 193.784 274.1L182.084 256.7C181.618 255.967 181.084 255.4 180.484 255C179.951 254.533 179.051 254.2 177.784 254C176.518 253.8 174.551 253.7 171.884 253.7V269.8C171.884 272.533 172.184 274.533 172.784 275.8C173.451 277 174.384 277.767 175.584 278.1C176.851 278.433 178.384 278.667 180.184 278.8C180.718 279.067 180.984 279.633 180.984 280.5C180.984 281.3 180.718 281.867 180.184 282.2C178.851 282.133 177.251 282.1 175.384 282.1C173.518 282.1 171.651 282.067 169.784 282C167.918 282 166.318 282 164.984 282C163.651 282 162.018 282 160.084 282C158.218 282.067 156.318 282.1 154.384 282.1C152.518 282.1 150.918 282.133 149.584 282.2C149.118 281.867 148.884 281.3 148.884 280.5C148.884 279.633 149.118 279.067 149.584 278.8C151.451 278.667 152.984 278.433 154.184 278.1C155.384 277.767 156.284 277 156.884 275.8C157.551 274.533 157.884 272.533 157.884 269.8V229.7C157.884 226.9 157.551 224.9 156.884 223.7C156.284 222.5 155.384 221.733 154.184 221.4C152.984 221 151.451 220.767 149.584 220.7C149.118 220.367 148.884 219.8 148.884 219C148.884 218.133 149.118 217.567 149.584 217.3C150.384 217.3 151.884 217.3 154.084 217.3C156.351 217.233 158.918 217.167 161.784 217.1C164.718 216.967 167.618 216.867 170.484 216.8C173.351 216.733 175.884 216.7 178.084 216.7C180.351 216.633 181.884 216.6 182.684 216.6ZM191.984 235.3C191.984 231.233 191.351 228.167 190.084 226.1C188.818 223.967 187.218 222.533 185.284 221.8C183.351 221.067 181.418 220.7 179.484 220.7C176.818 220.7 174.884 221.333 173.684 222.6C172.484 223.867 171.884 226.2 171.884 229.6V249.5H176.184C178.984 249.5 181.584 249.167 183.984 248.5C186.384 247.833 188.318 246.5 189.784 244.5C191.251 242.433 191.984 239.367 191.984 235.3ZM281.166 282C280.233 282.467 279.366 282.767 278.566 282.9C277.833 283.1 276.6 283.2 274.866 283.2C274.866 283.2 274.433 282.8 273.566 282C272.766 281.133 271.866 280.067 270.866 278.8L237.366 239C236.233 237.667 235.433 237 234.966 237C234.7 237 234.5 237.2 234.366 237.6C234.233 238 234.166 238.467 234.166 239V268.7C234.166 271.7 234.4 273.867 234.866 275.2C235.333 276.533 236.2 277.4 237.466 277.8C238.733 278.2 240.533 278.533 242.866 278.8C243.2 279.067 243.366 279.633 243.366 280.5C243.366 281.3 243.2 281.867 242.866 282.2C241.2 282.133 239.8 282.1 238.666 282.1C237.533 282.1 236.433 282.067 235.366 282C234.366 282 233.133 282 231.666 282C230.2 282 228.933 282 227.866 282C226.8 282.067 225.7 282.1 224.566 282.1C223.5 282.1 222.133 282.133 220.466 282.2C220.2 281.867 220.066 281.3 220.066 280.5C220.066 279.633 220.2 279.067 220.466 278.8C222.8 278.533 224.6 278.2 225.866 277.8C227.133 277.4 228 276.533 228.466 275.2C228.933 273.8 229.166 271.633 229.166 268.7V227C228.9 225.667 228.033 224.333 226.566 223C225.166 221.6 223.4 220.833 221.266 220.7C221 220.367 220.866 219.8 220.866 219C220.866 218.133 221 217.567 221.266 217.3L237.566 217.5L246.466 228L272.966 259.2C273.7 260.067 274.333 260.567 274.866 260.7C275.4 260.767 275.666 260.167 275.666 258.9V230.8C275.666 227.733 275.433 225.533 274.966 224.2C274.5 222.867 273.633 222 272.366 221.6C271.1 221.2 269.3 220.9 266.966 220.7C266.7 220.367 266.566 219.8 266.566 219C266.566 218.133 266.7 217.567 266.966 217.3C269.5 217.367 271.5 217.433 272.966 217.5C274.433 217.5 276.3 217.5 278.566 217.5C279.966 217.5 281.166 217.5 282.166 217.5C283.166 217.433 284.2 217.4 285.266 217.4C286.4 217.333 287.766 217.3 289.366 217.3C289.7 217.567 289.866 218.133 289.866 219C289.866 219.8 289.7 220.367 289.366 220.7C287.033 220.9 285.233 221.233 283.966 221.7C282.7 222.1 281.833 222.967 281.366 224.3C280.9 225.633 280.666 227.8 280.666 230.8V271.8C280.666 272.8 280.7 274.133 280.766 275.8C280.9 277.4 281 278.833 281.066 280.1C281.133 281.367 281.166 282 281.166 282ZM324.39 245.5C327.723 245.5 330.023 245.133 331.29 244.4C332.623 243.6 333.357 241.833 333.49 239.1C333.823 238.767 334.557 238.6 335.69 238.6C336.823 238.6 337.523 238.767 337.79 239.1C337.723 240.567 337.657 241.967 337.59 243.3C337.59 244.567 337.59 246.033 337.59 247.7C337.59 249.433 337.59 250.9 337.59 252.1C337.657 253.3 337.723 254.767 337.79 256.5C337.523 256.767 336.823 256.9 335.69 256.9C334.557 256.9 333.823 256.767 333.49 256.5C333.357 254.233 332.657 252.6 331.39 251.6C330.19 250.6 327.857 250.1 324.39 250.1H316.29V273C316.29 274.333 316.69 275.467 317.49 276.4C318.357 277.333 319.323 277.8 320.39 277.8H330.49C334.29 277.8 337.323 276.567 339.59 274.1C341.923 271.633 343.59 268.6 344.59 265C345.257 264.867 346.023 264.867 346.89 265C347.823 265.067 348.557 265.233 349.09 265.5C348.69 268.033 348.323 270.833 347.99 273.9C347.657 276.9 347.123 279.667 346.39 282.2C346.39 282.2 345.89 282.167 344.89 282.1C343.957 282.1 342.757 282.1 341.29 282.1C339.823 282.1 338.29 282.067 336.69 282C335.157 282 333.79 282 332.59 282H309.09C309.09 282 308.523 282 307.39 282C306.257 282 304.857 282 303.19 282C301.523 282.067 299.79 282.1 297.99 282.1C296.257 282.167 294.79 282.2 293.59 282.2C293.323 281.867 293.19 281.3 293.19 280.5C293.19 279.633 293.323 279.067 293.59 278.8C295.923 278.667 297.723 278.433 298.99 278.1C300.257 277.767 301.123 277 301.59 275.8C302.057 274.533 302.29 272.533 302.29 269.8V229.8C302.29 227 302.057 225 301.59 223.8C301.123 222.533 300.257 221.733 298.99 221.4C297.723 221 295.923 220.767 293.59 220.7C293.323 220.367 293.19 219.8 293.19 219C293.19 218.133 293.323 217.567 293.59 217.3C294.857 217.3 296.357 217.333 298.09 217.4C299.823 217.4 301.523 217.433 303.19 217.5C304.857 217.5 306.223 217.5 307.29 217.5C308.423 217.5 308.99 217.5 308.99 217.5H338.49C339.69 217.5 340.59 217.467 341.19 217.4C341.79 217.333 342.523 217.233 343.39 217.1C343.657 217.1 343.79 217.2 343.79 217.4C343.857 217.6 343.923 218.267 343.99 219.4C344.057 220.533 344.123 221.867 344.19 223.4C344.323 224.933 344.457 226.5 344.59 228.1C344.723 229.633 344.857 230.9 344.99 231.9C344.523 232.167 343.823 232.333 342.89 232.4C342.023 232.467 341.29 232.467 340.69 232.4C339.957 230.067 339.157 228.133 338.29 226.6C337.423 225 336.257 223.8 334.79 223C333.39 222.133 331.423 221.7 328.89 221.7H320.39C319.19 221.7 318.19 222.233 317.39 223.3C316.657 224.3 316.29 225.4 316.29 226.6V245.5H324.39ZM387.927 277.8C391.461 277.8 394.261 277.233 396.327 276.1C398.461 274.967 400.127 273.433 401.327 271.5C402.527 269.567 403.461 267.4 404.127 265C404.727 264.933 405.461 264.933 406.327 265C407.261 265.067 407.961 265.233 408.427 265.5C408.161 268.1 407.794 270.9 407.327 273.9C406.861 276.9 406.361 279.667 405.827 282.2C405.827 282.2 405.327 282.167 404.327 282.1C403.394 282.1 402.227 282.1 400.827 282.1C399.494 282.1 398.161 282.067 396.827 282C395.561 282 394.561 282 393.827 282H371.527C370.527 282 369.194 282 367.527 282C365.861 282.067 364.127 282.1 362.327 282.1C360.594 282.1 359.127 282.1 357.927 282.1C356.727 282.167 356.127 282.2 356.127 282.2C355.661 281.867 355.427 281.3 355.427 280.5C355.427 279.633 355.661 279.067 356.127 278.8C357.994 278.667 359.527 278.433 360.727 278.1C361.927 277.767 362.827 277 363.427 275.8C364.094 274.533 364.427 272.533 364.427 269.8V229.7C364.427 226.9 364.094 224.9 363.427 223.7C362.827 222.5 361.927 221.733 360.727 221.4C359.527 221 357.994 220.767 356.127 220.7C355.661 220.367 355.427 219.8 355.427 219C355.427 218.133 355.661 217.567 356.127 217.3C356.127 217.3 356.727 217.333 357.927 217.4C359.127 217.4 360.594 217.4 362.327 217.4C364.061 217.4 365.761 217.433 367.427 217.5C369.161 217.5 370.527 217.5 371.527 217.5C372.861 217.5 374.161 217.5 375.427 217.5C376.761 217.433 378.294 217.4 380.027 217.4C381.761 217.333 383.994 217.3 386.727 217.3C387.261 217.567 387.527 218.133 387.527 219C387.527 219.8 387.261 220.367 386.727 220.7C384.927 220.767 383.394 221 382.127 221.4C380.927 221.733 379.994 222.5 379.327 223.7C378.727 224.9 378.427 226.9 378.427 229.7V269.9C378.427 272.9 378.727 274.967 379.327 276.1C379.994 277.233 380.861 277.8 381.927 277.8H387.927ZM427.242 274.1C426.709 275.5 426.776 276.5 427.442 277.1C428.109 277.7 429.076 278.133 430.342 278.4C431.609 278.6 432.876 278.733 434.142 278.8C434.476 279.067 434.642 279.633 434.642 280.5C434.642 281.3 434.476 281.867 434.142 282.2C432.276 282.133 430.109 282.067 427.642 282C425.176 282 422.909 282 420.842 282C418.909 282 417.309 282 416.042 282C414.842 282.067 413.309 282.133 411.442 282.2C411.176 281.867 411.042 281.3 411.042 280.5C411.042 279.633 411.176 279.067 411.442 278.8C412.909 278.667 414.209 278.467 415.342 278.2C416.542 277.933 417.642 277.333 418.642 276.4C419.642 275.4 420.576 273.867 421.442 271.8L443.142 220.6C444.276 220.6 445.609 220.3 447.142 219.7C448.676 219.1 450.109 218.433 451.442 217.7C452.776 216.967 453.676 216.467 454.142 216.2L474.742 273.4C475.342 275.067 476.076 276.267 476.942 277C477.876 277.733 478.909 278.2 480.042 278.4C481.242 278.533 482.476 278.667 483.742 278.8C484.076 279.067 484.242 279.633 484.242 280.5C484.242 281.3 484.076 281.867 483.742 282.2C481.876 282.133 479.676 282.067 477.142 282C474.676 282 472.409 282 470.342 282C469.076 282 467.309 282 465.042 282C462.842 282.067 460.642 282.1 458.442 282.1C456.242 282.1 454.509 282.133 453.242 282.2C452.976 281.867 452.842 281.3 452.842 280.5C452.842 279.633 452.976 279.067 453.242 278.8C454.842 278.667 456.276 278.567 457.542 278.5C458.876 278.433 459.842 278.133 460.442 277.6C461.042 277.067 461.109 276.133 460.642 274.8L455.042 258.5H436.042C434.842 258.5 434.009 258.633 433.542 258.9C433.142 259.1 432.809 259.533 432.542 260.2L427.242 274.1ZM438.042 253.7H453.242L445.042 230H444.342L435.542 252.4C435.342 252.867 435.442 253.2 435.842 253.4C436.242 253.6 436.976 253.7 438.042 253.7ZM526.866 218.9C527.199 221.767 527.466 224.367 527.666 226.7C527.866 228.967 527.966 231.433 527.966 234.1C527.432 234.567 526.632 234.833 525.566 234.9C524.566 234.9 523.699 234.8 522.966 234.6C522.366 232.4 521.566 230.2 520.566 228C519.632 225.8 518.332 223.967 516.666 222.5C514.999 221.033 512.732 220.3 509.866 220.3C507.332 220.3 505.266 221.1 503.666 222.7C502.132 224.3 501.366 226.5 501.366 229.3C501.366 231.167 501.999 232.967 503.266 234.7C504.599 236.433 506.132 237.967 507.866 239.3C509.599 240.567 511.132 241.533 512.466 242.2C514.399 243.2 516.632 244.5 519.166 246.1C521.699 247.633 523.932 249.467 525.866 251.6C527.332 253.2 528.566 254.967 529.566 256.9C530.566 258.767 531.066 261 531.066 263.6C531.066 266.667 530.366 269.367 528.966 271.7C527.632 274.033 526.066 275.967 524.266 277.5C520.199 281.167 515.166 283 509.166 283C505.699 283 502.966 282.9 500.966 282.7C498.966 282.5 497.366 282.267 496.166 282C495.032 281.733 493.966 281.5 492.966 281.3C491.966 281.1 490.766 281 489.366 281C488.832 279.133 488.366 276.867 487.966 274.2C487.632 271.467 487.466 268.233 487.466 264.5C488.266 264.3 489.066 264.133 489.866 264C490.732 263.8 491.599 263.867 492.466 264.2C493.132 267.2 494.266 269.8 495.866 272C497.466 274.2 499.332 275.9 501.466 277.1C503.666 278.233 505.866 278.8 508.066 278.8C511.132 278.8 513.632 278.033 515.566 276.5C517.499 274.967 518.466 272.967 518.466 270.5C518.466 267.7 517.532 265.267 515.666 263.2C513.799 261.133 511.699 259.3 509.366 257.7C507.966 256.7 506.199 255.633 504.066 254.5C501.999 253.3 499.866 251.967 497.666 250.5C495.532 248.967 493.699 247.167 492.166 245.1C491.032 243.567 490.199 241.733 489.666 239.6C489.132 237.467 488.866 235.433 488.866 233.5C488.866 231.1 489.466 228.8 490.666 226.6C491.932 224.333 493.499 222.467 495.366 221C497.432 219.333 499.799 218.133 502.466 217.4C505.199 216.6 507.699 216.2 509.966 216.2C513.099 216.2 515.532 216.367 517.266 216.7C519.066 217.033 520.666 217.433 522.066 217.9C523.466 218.3 525.066 218.633 526.866 218.9ZM599.856 283C594.99 283 590.59 282.533 586.656 281.6C582.723 280.6 579.156 278.967 575.956 276.7C573.29 274.767 571.056 272.367 569.256 269.5C567.456 266.567 566.09 263.467 565.156 260.2C564.29 256.867 563.856 253.633 563.856 250.5C563.856 244.967 564.79 240.1 566.656 235.9C568.59 231.633 571.223 228.033 574.556 225.1C577.89 222.167 581.723 219.967 586.056 218.5C590.456 216.967 595.09 216.2 599.956 216.2C604.09 216.2 607.456 216.533 610.056 217.2C612.656 217.867 614.856 218.567 616.656 219.3C618.456 220.033 620.19 220.5 621.856 220.7C622.323 223.433 622.723 226.067 623.056 228.6C623.456 231.067 623.79 233.6 624.056 236.2C623.523 236.467 622.823 236.667 621.956 236.8C621.09 236.933 620.356 236.9 619.756 236.7C618.89 233.833 617.69 231.167 616.156 228.7C614.69 226.167 612.59 224.133 609.856 222.6C607.123 221.067 603.456 220.3 598.856 220.3C594.923 220.3 591.456 221.6 588.456 224.2C585.456 226.733 583.123 230.133 581.456 234.4C579.79 238.667 578.956 243.4 578.956 248.6C578.956 252.467 579.49 256.167 580.556 259.7C581.623 263.233 583.09 266.367 584.956 269.1C586.89 271.767 589.123 273.9 591.656 275.5C594.19 277.033 596.89 277.8 599.756 277.8C603.29 277.8 606.99 277.033 610.856 275.5C614.723 273.967 618.423 271.267 621.956 267.4C622.49 267.4 623.09 267.633 623.756 268.1C624.49 268.567 624.99 269.033 625.256 269.5C621.856 273.967 617.99 277.333 613.656 279.6C609.323 281.867 604.723 283 599.856 283ZM700.162 249.1C700.162 254.033 699.395 258.533 697.862 262.6C696.395 266.6 694.295 270.1 691.562 273.1C688.695 276.167 685.195 278.6 681.062 280.4C676.928 282.133 672.295 283 667.162 283C662.895 283 658.795 282.267 654.862 280.8C650.995 279.333 647.528 277.233 644.462 274.5C641.395 271.7 638.962 268.333 637.162 264.4C635.362 260.467 634.462 256.033 634.462 251.1C634.462 246.5 635.162 242.167 636.562 238.1C637.962 234.033 639.962 230.467 642.562 227.4C645.495 223.933 649.062 221.2 653.262 219.2C657.462 217.2 662.062 216.2 667.062 216.2C671.662 216.2 675.962 217 679.962 218.6C683.962 220.133 687.462 222.333 690.462 225.2C693.528 228.067 695.895 231.533 697.562 235.6C699.295 239.6 700.162 244.1 700.162 249.1ZM665.862 220.4C662.862 220.4 660.128 221.4 657.662 223.4C655.195 225.333 653.228 228.4 651.762 232.6C650.295 236.8 649.562 242.3 649.562 249.1C649.562 255.367 650.428 260.733 652.162 265.2C653.895 269.6 656.228 272.967 659.162 275.3C662.162 277.633 665.495 278.8 669.162 278.8C672.562 278.8 675.428 277.667 677.762 275.4C680.162 273.067 681.962 269.833 683.162 265.7C684.428 261.567 685.062 256.733 685.062 251.2C685.062 244.4 684.195 238.733 682.462 234.2C680.795 229.6 678.495 226.167 675.562 223.9C672.695 221.567 669.462 220.4 665.862 220.4ZM740.009 216.6C747.409 216.6 752.975 217.7 756.709 219.9C758.775 221.1 760.342 222.533 761.409 224.2C762.542 225.8 763.309 227.433 763.709 229.1C764.175 230.767 764.409 232.267 764.409 233.6C764.409 237 763.675 239.867 762.209 242.2C760.742 244.533 758.975 246.433 756.909 247.9C754.909 249.367 753.009 250.467 751.209 251.2L764.809 272.2C766.209 274.267 767.575 275.9 768.909 277.1C770.309 278.233 772.142 278.8 774.409 278.8C774.609 279.2 774.709 279.8 774.709 280.6C774.775 281.333 774.709 281.867 774.509 282.2C774.042 282.467 772.709 282.667 770.509 282.8C768.375 282.933 766.309 283 764.309 283C761.309 283 758.742 282.1 756.609 280.3C754.475 278.433 752.642 276.367 751.109 274.1L739.409 256.7C738.942 255.967 738.409 255.4 737.809 255C737.275 254.533 736.375 254.2 735.109 254C733.842 253.8 731.875 253.7 729.209 253.7V269.8C729.209 272.533 729.509 274.533 730.109 275.8C730.775 277 731.709 277.767 732.909 278.1C734.175 278.433 735.709 278.667 737.509 278.8C738.042 279.067 738.309 279.633 738.309 280.5C738.309 281.3 738.042 281.867 737.509 282.2C736.175 282.133 734.575 282.1 732.709 282.1C730.842 282.1 728.975 282.067 727.109 282C725.242 282 723.642 282 722.309 282C720.975 282 719.342 282 717.409 282C715.542 282.067 713.642 282.1 711.709 282.1C709.842 282.1 708.242 282.133 706.909 282.2C706.442 281.867 706.209 281.3 706.209 280.5C706.209 279.633 706.442 279.067 706.909 278.8C708.775 278.667 710.309 278.433 711.509 278.1C712.709 277.767 713.609 277 714.209 275.8C714.875 274.533 715.209 272.533 715.209 269.8V229.7C715.209 226.9 714.875 224.9 714.209 223.7C713.609 222.5 712.709 221.733 711.509 221.4C710.309 221 708.775 220.767 706.909 220.7C706.442 220.367 706.209 219.8 706.209 219C706.209 218.133 706.442 217.567 706.909 217.3C707.709 217.3 709.209 217.3 711.409 217.3C713.675 217.233 716.242 217.167 719.109 217.1C722.042 216.967 724.942 216.867 727.809 216.8C730.675 216.733 733.209 216.7 735.409 216.7C737.675 216.633 739.209 216.6 740.009 216.6ZM749.309 235.3C749.309 231.233 748.675 228.167 747.409 226.1C746.142 223.967 744.542 222.533 742.609 221.8C740.675 221.067 738.742 220.7 736.809 220.7C734.142 220.7 732.209 221.333 731.009 222.6C729.809 223.867 729.209 226.2 729.209 229.6V249.5H733.509C736.309 249.5 738.909 249.167 741.309 248.5C743.709 247.833 745.642 246.5 747.109 244.5C748.575 242.433 749.309 239.367 749.309 235.3ZM811.591 216.6C818.991 216.6 824.557 217.7 828.291 219.9C830.357 221.1 831.924 222.533 832.991 224.2C834.124 225.8 834.891 227.433 835.291 229.1C835.757 230.767 835.991 232.267 835.991 233.6C835.991 237 835.257 239.867 833.791 242.2C832.324 244.533 830.557 246.433 828.491 247.9C826.491 249.367 824.591 250.467 822.791 251.2L836.391 272.2C837.791 274.267 839.157 275.9 840.491 277.1C841.891 278.233 843.724 278.8 845.991 278.8C846.191 279.2 846.291 279.8 846.291 280.6C846.357 281.333 846.291 281.867 846.091 282.2C845.624 282.467 844.291 282.667 842.091 282.8C839.957 282.933 837.891 283 835.891 283C832.891 283 830.324 282.1 828.191 280.3C826.057 278.433 824.224 276.367 822.691 274.1L810.991 256.7C810.524 255.967 809.991 255.4 809.391 255C808.857 254.533 807.957 254.2 806.691 254C805.424 253.8 803.457 253.7 800.791 253.7V269.8C800.791 272.533 801.091 274.533 801.691 275.8C802.357 277 803.291 277.767 804.491 278.1C805.757 278.433 807.291 278.667 809.091 278.8C809.624 279.067 809.891 279.633 809.891 280.5C809.891 281.3 809.624 281.867 809.091 282.2C807.757 282.133 806.157 282.1 804.291 282.1C802.424 282.1 800.557 282.067 798.691 282C796.824 282 795.224 282 793.891 282C792.557 282 790.924 282 788.991 282C787.124 282.067 785.224 282.1 783.291 282.1C781.424 282.1 779.824 282.133 778.491 282.2C778.024 281.867 777.791 281.3 777.791 280.5C777.791 279.633 778.024 279.067 778.491 278.8C780.357 278.667 781.891 278.433 783.091 278.1C784.291 277.767 785.191 277 785.791 275.8C786.457 274.533 786.791 272.533 786.791 269.8V229.7C786.791 226.9 786.457 224.9 785.791 223.7C785.191 222.5 784.291 221.733 783.091 221.4C781.891 221 780.357 220.767 778.491 220.7C778.024 220.367 777.791 219.8 777.791 219C777.791 218.133 778.024 217.567 778.491 217.3C779.291 217.3 780.791 217.3 782.991 217.3C785.257 217.233 787.824 217.167 790.691 217.1C793.624 216.967 796.524 216.867 799.391 216.8C802.257 216.733 804.791 216.7 806.991 216.7C809.257 216.633 810.791 216.6 811.591 216.6ZM820.891 235.3C820.891 231.233 820.257 228.167 818.991 226.1C817.724 223.967 816.124 222.533 814.191 221.8C812.257 221.067 810.324 220.7 808.391 220.7C805.724 220.7 803.791 221.333 802.591 222.6C801.391 223.867 800.791 226.2 800.791 229.6V249.5H805.091C807.891 249.5 810.491 249.167 812.891 248.5C815.291 247.833 817.224 246.5 818.691 244.5C820.157 242.433 820.891 239.367 820.891 235.3ZM879.273 245.5C882.606 245.5 884.906 245.133 886.173 244.4C887.506 243.6 888.239 241.833 888.373 239.1C888.706 238.767 889.439 238.6 890.573 238.6C891.706 238.6 892.406 238.767 892.673 239.1C892.606 240.567 892.539 241.967 892.473 243.3C892.473 244.567 892.473 246.033 892.473 247.7C892.473 249.433 892.473 250.9 892.473 252.1C892.539 253.3 892.606 254.767 892.673 256.5C892.406 256.767 891.706 256.9 890.573 256.9C889.439 256.9 888.706 256.767 888.373 256.5C888.239 254.233 887.539 252.6 886.273 251.6C885.073 250.6 882.739 250.1 879.273 250.1H871.173V273C871.173 274.333 871.573 275.467 872.373 276.4C873.239 277.333 874.206 277.8 875.273 277.8H885.373C889.173 277.8 892.206 276.567 894.473 274.1C896.806 271.633 898.473 268.6 899.473 265C900.139 264.867 900.906 264.867 901.773 265C902.706 265.067 903.439 265.233 903.973 265.5C903.573 268.033 903.206 270.833 902.873 273.9C902.539 276.9 902.006 279.667 901.273 282.2C901.273 282.2 900.773 282.167 899.773 282.1C898.839 282.1 897.639 282.1 896.173 282.1C894.706 282.1 893.173 282.067 891.573 282C890.039 282 888.673 282 887.473 282H863.973C863.973 282 863.406 282 862.273 282C861.139 282 859.739 282 858.073 282C856.406 282.067 854.673 282.1 852.873 282.1C851.139 282.167 849.673 282.2 848.473 282.2C848.206 281.867 848.073 281.3 848.073 280.5C848.073 279.633 848.206 279.067 848.473 278.8C850.806 278.667 852.606 278.433 853.873 278.1C855.139 277.767 856.006 277 856.473 275.8C856.939 274.533 857.173 272.533 857.173 269.8V229.8C857.173 227 856.939 225 856.473 223.8C856.006 222.533 855.139 221.733 853.873 221.4C852.606 221 850.806 220.767 848.473 220.7C848.206 220.367 848.073 219.8 848.073 219C848.073 218.133 848.206 217.567 848.473 217.3C849.739 217.3 851.239 217.333 852.973 217.4C854.706 217.4 856.406 217.433 858.073 217.5C859.739 217.5 861.106 217.5 862.173 217.5C863.306 217.5 863.873 217.5 863.873 217.5H893.373C894.573 217.5 895.473 217.467 896.073 217.4C896.673 217.333 897.406 217.233 898.273 217.1C898.539 217.1 898.673 217.2 898.673 217.4C898.739 217.6 898.806 218.267 898.873 219.4C898.939 220.533 899.006 221.867 899.073 223.4C899.206 224.933 899.339 226.5 899.473 228.1C899.606 229.633 899.739 230.9 899.873 231.9C899.406 232.167 898.706 232.333 897.773 232.4C896.906 232.467 896.173 232.467 895.573 232.4C894.839 230.067 894.039 228.133 893.173 226.6C892.306 225 891.139 223.8 889.673 223C888.273 222.133 886.306 221.7 883.773 221.7H875.273C874.073 221.7 873.073 222.233 872.273 223.3C871.539 224.3 871.173 225.4 871.173 226.6V245.5H879.273ZM948.41 269.7C948.41 272.433 948.643 274.433 949.11 275.7C949.643 276.967 950.61 277.767 952.01 278.1C953.41 278.433 955.443 278.667 958.11 278.8C958.443 279.067 958.61 279.633 958.61 280.5C958.61 281.3 958.443 281.867 958.11 282.2C955.643 282.133 953.01 282.067 950.21 282C947.477 282 944.477 282 941.21 282C938.01 282 935.077 282 932.41 282C929.743 282.067 927.177 282.133 924.71 282.2C924.443 281.867 924.31 281.3 924.31 280.5C924.31 279.633 924.443 279.067 924.71 278.8C927.377 278.667 929.41 278.433 930.81 278.1C932.21 277.767 933.143 276.967 933.61 275.7C934.143 274.433 934.41 272.433 934.41 269.7V231.4C934.41 228.333 934.077 225.933 933.41 224.2C932.81 222.467 931.577 221.6 929.71 221.6H924.81C921.543 221.6 918.843 222.367 916.71 223.9C914.643 225.367 913.11 228.1 912.11 232.1C911.51 232.1 910.843 232.067 910.11 232C909.377 231.933 908.743 231.8 908.21 231.6C908.743 229.2 909.243 226.733 909.71 224.2C910.177 221.667 910.51 219.267 910.71 217C910.71 216.8 910.843 216.7 911.11 216.7C912.377 216.767 914.343 216.867 917.01 217C919.743 217.133 922.677 217.267 925.81 217.4C929.01 217.467 931.877 217.5 934.41 217.5H948.51C951.177 217.5 954.01 217.467 957.01 217.4C960.077 217.267 962.877 217.133 965.41 217C967.943 216.867 969.777 216.767 970.91 216.7C971.11 216.7 971.21 216.8 971.21 217C971.277 219.267 971.41 221.633 971.61 224.1C971.877 226.567 972.177 228.967 972.51 231.3C972.043 231.5 971.41 231.633 970.61 231.7C969.81 231.767 969.143 231.8 968.61 231.8C967.743 227.933 966.21 225.267 964.01 223.8C961.877 222.333 958.943 221.6 955.21 221.6H953.01C951.21 221.6 949.977 222.5 949.31 224.3C948.71 226.033 948.41 228.5 948.41 231.7V269.7ZM1042.06 249.1C1042.06 254.033 1041.29 258.533 1039.76 262.6C1038.29 266.6 1036.19 270.1 1033.46 273.1C1030.59 276.167 1027.09 278.6 1022.96 280.4C1018.82 282.133 1014.19 283 1009.06 283C1004.79 283 1000.69 282.267 996.756 280.8C992.89 279.333 989.423 277.233 986.356 274.5C983.29 271.7 980.856 268.333 979.056 264.4C977.256 260.467 976.356 256.033 976.356 251.1C976.356 246.5 977.056 242.167 978.456 238.1C979.856 234.033 981.856 230.467 984.456 227.4C987.39 223.933 990.956 221.2 995.156 219.2C999.356 217.2 1003.96 216.2 1008.96 216.2C1013.56 216.2 1017.86 217 1021.86 218.6C1025.86 220.133 1029.36 222.333 1032.36 225.2C1035.42 228.067 1037.79 231.533 1039.46 235.6C1041.19 239.6 1042.06 244.1 1042.06 249.1ZM1007.76 220.4C1004.76 220.4 1002.02 221.4 999.556 223.4C997.09 225.333 995.123 228.4 993.656 232.6C992.19 236.8 991.456 242.3 991.456 249.1C991.456 255.367 992.323 260.733 994.056 265.2C995.79 269.6 998.123 272.967 1001.06 275.3C1004.06 277.633 1007.39 278.8 1011.06 278.8C1014.46 278.8 1017.32 277.667 1019.66 275.4C1022.06 273.067 1023.86 269.833 1025.06 265.7C1026.32 261.567 1026.96 256.733 1026.96 251.2C1026.96 244.4 1026.09 238.733 1024.36 234.2C1022.69 229.6 1020.39 226.167 1017.46 223.9C1014.59 221.567 1011.36 220.4 1007.76 220.4ZM1081.9 216.6C1089.3 216.6 1094.87 217.7 1098.6 219.9C1100.67 221.1 1102.24 222.533 1103.3 224.2C1104.44 225.8 1105.2 227.433 1105.6 229.1C1106.07 230.767 1106.3 232.267 1106.3 233.6C1106.3 237 1105.57 239.867 1104.1 242.2C1102.64 244.533 1100.87 246.433 1098.8 247.9C1096.8 249.367 1094.9 250.467 1093.1 251.2L1106.7 272.2C1108.1 274.267 1109.47 275.9 1110.8 277.1C1112.2 278.233 1114.04 278.8 1116.3 278.8C1116.5 279.2 1116.6 279.8 1116.6 280.6C1116.67 281.333 1116.6 281.867 1116.4 282.2C1115.94 282.467 1114.6 282.667 1112.4 282.8C1110.27 282.933 1108.2 283 1106.2 283C1103.2 283 1100.64 282.1 1098.5 280.3C1096.37 278.433 1094.54 276.367 1093 274.1L1081.3 256.7C1080.84 255.967 1080.3 255.4 1079.7 255C1079.17 254.533 1078.27 254.2 1077 254C1075.74 253.8 1073.77 253.7 1071.1 253.7V269.8C1071.1 272.533 1071.4 274.533 1072 275.8C1072.67 277 1073.6 277.767 1074.8 278.1C1076.07 278.433 1077.6 278.667 1079.4 278.8C1079.94 279.067 1080.2 279.633 1080.2 280.5C1080.2 281.3 1079.94 281.867 1079.4 282.2C1078.07 282.133 1076.47 282.1 1074.6 282.1C1072.74 282.1 1070.87 282.067 1069 282C1067.14 282 1065.54 282 1064.2 282C1062.87 282 1061.24 282 1059.3 282C1057.44 282.067 1055.54 282.1 1053.6 282.1C1051.74 282.1 1050.14 282.133 1048.8 282.2C1048.34 281.867 1048.1 281.3 1048.1 280.5C1048.1 279.633 1048.34 279.067 1048.8 278.8C1050.67 278.667 1052.2 278.433 1053.4 278.1C1054.6 277.767 1055.5 277 1056.1 275.8C1056.77 274.533 1057.1 272.533 1057.1 269.8V229.7C1057.1 226.9 1056.77 224.9 1056.1 223.7C1055.5 222.5 1054.6 221.733 1053.4 221.4C1052.2 221 1050.67 220.767 1048.8 220.7C1048.34 220.367 1048.1 219.8 1048.1 219C1048.1 218.133 1048.34 217.567 1048.8 217.3C1049.6 217.3 1051.1 217.3 1053.3 217.3C1055.57 217.233 1058.14 217.167 1061 217.1C1063.94 216.967 1066.84 216.867 1069.7 216.8C1072.57 216.733 1075.1 216.7 1077.3 216.7C1079.57 216.633 1081.1 216.6 1081.9 216.6ZM1091.2 235.3C1091.2 231.233 1090.57 228.167 1089.3 226.1C1088.04 223.967 1086.44 222.533 1084.5 221.8C1082.57 221.067 1080.64 220.7 1078.7 220.7C1076.04 220.7 1074.1 221.333 1072.9 222.6C1071.7 223.867 1071.1 226.2 1071.1 229.6V249.5H1075.4C1078.2 249.5 1080.8 249.167 1083.2 248.5C1085.6 247.833 1087.54 246.5 1089 244.5C1090.47 242.433 1091.2 239.367 1091.2 235.3Z" fill="#004AAB"/>
</svg>
